<svg id="Layer_1" data-name="Layer 1" xmlns="http://www.w3.org/2000/svg" viewBox="0 0 333.18 275.04"><defs><style>.cls-1,.cls-5{fill:#54387a;}.cls-2{fill:#775f99;}.cls-3{fill:#e7e2ee;}.cls-4{fill:#c4b8d6;}.cls-5{stroke:#54387a;stroke-miterlimit:10;}</style></defs><title>test</title><polygon class="cls-1" points="48.18 259.04 61.18 274.04 266.18 275.04 333.18 17.04 323.18 0.04 48.18 259.04"/><path class="cls-2" d="M257,261H50L132,18S323,1,325,2,257,261,257,261Z" transform="translate(-1.82 -1.96)"/><polygon class="cls-3" points="243.5 214.04 84.18 214.04 142.88 36.32 295.15 24.7 243.5 214.04"/><polygon class="cls-4" points="144.18 220.04 175.18 220.04 166.18 251.04 134.18 251.04 144.18 220.04"/><path class="cls-2" d="M149,45.17a.88.88,0,0,1,.66.34,1.55,1.55,0,0,1,.25.42,4.28,4.28,0,0,1,.27.81,11,11,0,0,1,.29,1.6c.12,1.07.21,2.14.25,3.22.09,2.16.11,4.31.08,6.47s0,4.31-.09,6.46-.06,4.28-.06,6.39.08,4.19.27,6.12a10.11,10.11,0,0,0,.52,2.51c.09.3.35.44.06.25a.94.94,0,0,0-.36-.07,1.81,1.81,0,0,0-.91.25c-.28.18-.17.13-.08,0a11.87,11.87,0,0,0,.78-1.1c.29-.45.57-.93.85-1.42.56-1,1.11-2,1.64-3.07,1.06-2.1,2.09-4.24,3.11-6.39,2-4.31,4.06-8.66,6.28-13,1.13-2.19,2.27-4.37,3.72-6.63.36-.57.76-1.15,1.22-1.75a10.64,10.64,0,0,1,2-2,4.72,4.72,0,0,1,2.44-1,3,3,0,0,1,.92.08,3,3,0,0,1,.68.3,5,5,0,0,1,.43.35c.11.12.18.22.27.33a5.47,5.47,0,0,1,.78,2.05,23.38,23.38,0,0,1,.38,3.42c.05,1.1.06,2.2.06,3.29,0,2.18-.06,4.35-.13,6.52-.14,4.32-.36,8.64-.36,12.82a36.15,36.15,0,0,0,.34,5.89,3.94,3.94,0,0,0,.27,1c0,.09.09.1-.08,0l-.08,0-.13-.07-.14,0-.21,0a1.89,1.89,0,0,0-.52,0,2.45,2.45,0,0,0-.47.14,3,3,0,0,0-.39.22,4.5,4.5,0,0,0,.32-.39,14.64,14.64,0,0,0,.85-1.24c1.16-1.87,2.25-4,3.31-6.11s2.09-4.27,3.12-6.43c2.08-4.33,4.1-8.69,6.42-13.1.59-1.11,1.2-2.21,1.87-3.34a26.63,26.63,0,0,1,2.46-3.59,10.3,10.3,0,0,1,1.1-1.1,5.45,5.45,0,0,1,2.44-1.28,3.17,3.17,0,0,1,1-.06,2.59,2.59,0,0,1,.85.2,3.59,3.59,0,0,1,.34.17,2.5,2.5,0,0,1,.24.16,2.12,2.12,0,0,1,.37.35,3.89,3.89,0,0,1,.69,1.19,13.56,13.56,0,0,1,.64,3.58,129.41,129.41,0,0,1-.16,13.09c-.19,4.3-.44,8.62-.4,12.7,0,1,.06,2,.15,2.93a9.47,9.47,0,0,0,.2,1.24,3.05,3.05,0,0,0,.12.41c0,.09.08.11,0,0a.48.48,0,0,0-.16-.12.75.75,0,0,0-.34-.15,2,2,0,0,0-1.13,0,1.87,1.87,0,0,0-.71.37,8.63,8.63,0,0,0,.65-.82c.57-.82,1.17-1.81,1.74-2.8,2.28-4.07,4.36-8.43,6.5-12.75s4.24-8.69,6.8-13.17c.66-1.12,1.33-2.25,2.21-3.47A13.68,13.68,0,0,1,217,44.12a6.4,6.4,0,0,1,2.29-1.41,4.48,4.48,0,0,1,1-.2,3.9,3.9,0,0,1,1,.08,2.93,2.93,0,0,1,.72.29,2.87,2.87,0,0,1,.47.35,3.46,3.46,0,0,1,.83,1.24,9.06,9.06,0,0,1,.33,1,15.68,15.68,0,0,1,.28,1.79c.12,1.15.15,2.26.16,3.36,0,4.4-.31,8.73-.57,13s-.58,8.63-.45,12.54a10.51,10.51,0,0,0,.31,2.42c0,.1.08.18,0,.06l-.11-.11-.09-.06-.17-.1a.66.66,0,0,0-.2-.06,1,1,0,0,0-.29-.07,2.27,2.27,0,0,0-.59,0,2,2,0,0,0-1,.43l.2-.21A20.7,20.7,0,0,0,222.89,76c.6-1,1.19-2,1.76-3,2.31-4.17,4.46-8.51,6.67-12.86,1.11-2.17,2.23-4.36,3.41-6.56s2.37-4.39,3.9-6.72c.4-.59.82-1.19,1.35-1.85a12.36,12.36,0,0,1,1-1.08,7.27,7.27,0,0,1,2-1.43,4.42,4.42,0,0,1,1-.33,4,4,0,0,1,1.06-.07,2.93,2.93,0,0,1,.82.18,2.22,2.22,0,0,1,.58.31,3.05,3.05,0,0,1,1,1.25,7.58,7.58,0,0,1,.56,2,38.37,38.37,0,0,1,.21,6.73c-.17,4.37-.56,8.7-.91,13-.17,2.15-.34,4.28-.46,6.37,0,1-.1,2.08-.11,3.08a23.28,23.28,0,0,0,.12,2.76,3.46,3.46,0,0,0,.15.68.2.2,0,0,0-.06-.07.47.47,0,0,0-.16-.15,1.06,1.06,0,0,0-.37-.18,1.76,1.76,0,0,0-.63-.08,2.22,2.22,0,0,0-.45.07,1.89,1.89,0,0,0-.33.13.72.72,0,0,0-.2.09l-.09.06c-.07.06,0,0,.12-.12s.25-.27.4-.44c.29-.36.62-.79.93-1.24,1.28-1.84,2.51-3.94,3.69-6,2.37-4.21,4.63-8.55,6.95-12.89,1.17-2.18,2.34-4.36,3.6-6.57.63-1.1,1.28-2.21,2-3.34.36-.57.73-1.14,1.15-1.74a18.42,18.42,0,0,1,1.54-2,8.16,8.16,0,0,1,1.63-1.37l.36-.21.5-.22a4,4,0,0,1,1.19-.27,2.73,2.73,0,0,1,.38,0l.28,0a2.09,2.09,0,0,1,.52.1,3.05,3.05,0,0,1,1.43.82,4.1,4.1,0,0,1,.69,1,9.93,9.93,0,0,1,.88,3.56,43.75,43.75,0,0,1-.07,6.68c-.34,4.41-1,8.8-1.64,13.18l-1,6.52c-.15,1.07-.31,2.14-.43,3.17-.06.51-.11,1-.14,1.47,0,.23,0,.43,0,.58s0,.11,0,.06,0,0,0-.08a.53.53,0,0,0-.06-.14,1.07,1.07,0,0,0-.27-.36,1.59,1.59,0,0,0-1-.4c1.32.07,1.95,1.25,1.42,2.62A3.73,3.73,0,0,1,266.33,83a1.93,1.93,0,0,1-1.19-.48,2,2,0,0,1-.37-.5,2,2,0,0,1-.12-.31,1.48,1.48,0,0,1-.07-.26,4.22,4.22,0,0,1-.09-.69c0-.37,0-.7,0-1,0-.61.08-1.18.14-1.75.11-1.13.26-2.23.4-3.33l.92-6.53c.6-4.33,1.16-8.64,1.43-12.8a38.06,38.06,0,0,0,0-5.94,6.44,6.44,0,0,0-.5-2.19c-.09-.23-.25-.22.08-.09l.13,0h.26a3,3,0,0,0,.75-.17,1.43,1.43,0,0,0,.28-.13l.16-.08c.34-.23.26-.22.17-.1a12.8,12.8,0,0,0-.82,1.07c-.31.44-.63.92-.93,1.41-.62,1-1.23,2-1.82,3.07-1.19,2.1-2.35,4.25-3.5,6.41-2.3,4.32-4.56,8.68-7,13.07-1.25,2.21-2.51,4.4-4.1,6.71-.4.58-.83,1.17-1.35,1.8-.26.31-.54.64-.88,1A9.73,9.73,0,0,1,247,82.38c-.17.11-.3.2-.49.31a5.07,5.07,0,0,1-.61.32,6.24,6.24,0,0,1-.76.28,4.82,4.82,0,0,1-.86.14,3.21,3.21,0,0,1-1-.12,3,3,0,0,1-.69-.35,4,4,0,0,1-.42-.39c-.09-.11-.17-.23-.25-.35a5.87,5.87,0,0,1-.67-2.13,24.25,24.25,0,0,1-.19-3.45c0-1.11,0-2.21.09-3.3.09-2.19.25-4.36.41-6.52.3-4.31.68-8.62.83-12.78a34,34,0,0,0-.18-5.82,3.63,3.63,0,0,0-.23-.89c0-.07-.07-.06.17.13a1.38,1.38,0,0,0,.26.14,2,2,0,0,0,1.08,0,2.73,2.73,0,0,0,.55-.18c.55-.27.51-.32.49-.29s-.18.19-.31.36c-.27.33-.58.76-.89,1.21-1.22,1.85-2.4,4-3.54,6.09s-2.25,4.27-3.36,6.43c-2.23,4.33-4.4,8.69-6.86,13.11-.62,1.11-1.26,2.22-2,3.36A29.85,29.85,0,0,1,225,81.36a12.42,12.42,0,0,1-1.15,1.14,5.73,5.73,0,0,1-2.58,1.32,3,3,0,0,1-1,0,4,4,0,0,1-.48-.09,2.67,2.67,0,0,1-.36-.14,1.48,1.48,0,0,1-.33-.18l-.23-.17a2.28,2.28,0,0,1-.35-.36,3.6,3.6,0,0,1-.64-1.22,14.38,14.38,0,0,1-.54-3.62c-.15-4.47.19-8.77.42-13.1s.54-8.62.53-12.7c0-1-.05-2-.14-2.91a10.92,10.92,0,0,0-.2-1.23c0-.17-.09-.32-.12-.41s-.08-.09.06,0a.93.93,0,0,0,.18.13,1,1,0,0,0,.37.14,1.59,1.59,0,0,0,.58.05,2.43,2.43,0,0,0,1.32-.48,6.31,6.31,0,0,0-.68.82c-.59.81-1.2,1.8-1.78,2.8-2.34,4.06-4.46,8.42-6.62,12.74s-4.26,8.7-6.81,13.16c-.66,1.13-1.33,2.25-2.2,3.47a14.06,14.06,0,0,1-1.77,2.07,6,6,0,0,1-2.25,1.39,4.45,4.45,0,0,1-1,.18,3.57,3.57,0,0,1-.94-.1,3.79,3.79,0,0,1-.68-.3,5,5,0,0,1-.43-.35,3.78,3.78,0,0,1-.78-1.23,6.64,6.64,0,0,1-.3-1,13.48,13.48,0,0,1-.28-1.79c-.12-1.15-.14-2.25-.16-3.36,0-4.4.24-8.73.45-13s.43-8.63.21-12.57A11,11,0,0,0,194,48c0-.1-.09-.2,0-.09s.06.07.12.1l.09.06a.65.65,0,0,0,.16.09,2.67,2.67,0,0,0,.48.11,2,2,0,0,0,.55,0,1.9,1.9,0,0,0,.84-.36,2.39,2.39,0,0,0-.23.25,18.6,18.6,0,0,0-1.75,2.55c-.6,1-1.17,2-1.73,3-2.23,4.17-4.3,8.51-6.42,12.85-1.06,2.17-2.12,4.35-3.24,6.54s-2.25,4.38-3.69,6.68c-.38.58-.77,1.17-1.26,1.81-.25.32-.55.67-.9,1A6.22,6.22,0,0,1,175.09,84a3.45,3.45,0,0,1-1.81.31l-.4-.07-.31-.12a1.4,1.4,0,0,1-.3-.15l-.22-.15a3,3,0,0,1-.92-1.19,7.45,7.45,0,0,1-.56-1.91,40.5,40.5,0,0,1-.39-6.7c0-4.37.25-8.71.41-13,.08-2.15.15-4.29.16-6.39a36.27,36.27,0,0,0-.34-5.91,3.17,3.17,0,0,0-.22-.75l0,0a1.29,1.29,0,0,0,.49.26,1.62,1.62,0,0,0,.51,0,1.65,1.65,0,0,0,.8-.26,4.79,4.79,0,0,0-.63.7c-.3.38-.61.82-.91,1.28-1.22,1.88-2.36,4-3.45,6.07-2.18,4.22-4.22,8.54-6.32,12.87-1.06,2.17-2.12,4.35-3.25,6.54-.57,1.1-1.16,2.2-1.8,3.31-.32.56-.66,1.13-1,1.71a15.33,15.33,0,0,1-1.4,1.87,6,6,0,0,1-1.46,1.25,3.57,3.57,0,0,1-1.72.53,2.86,2.86,0,0,1-1.12-.23,2.75,2.75,0,0,1-1.18-1,4.86,4.86,0,0,1-.51-1,13.32,13.32,0,0,1-.68-3.51,51.2,51.2,0,0,1,0-6.67c.09-2.2.27-4.4.49-6.61s.44-4.39.7-6.59l.73-6.56c.1-1.08.22-2.17.27-3.23,0-.53,0-1.05,0-1.55a3.66,3.66,0,0,0-.07-.69c0-.21-.17-.34,0-.31a.42.42,0,0,1-.38-.58A.73.73,0,0,1,149,45.17Z" transform="translate(-1.82 -1.96)"/><path class="cls-2" d="M127.53,131.26c-.87-.87.79-1.24.43-1.1l.14,0,.22,0,.41,0,.8-.06,1.58-.09,3.14-.14,6.25-.26,3.11-.17,1.55-.09h.2a1.36,1.36,0,0,0-.44.07,1.38,1.38,0,0,0-.36.18c-.05,0,.09-.13.19-.26a23,23,0,0,0,1.46-2.63c.48-1,.95-2,1.41-3L153,111.33c1.85-4.15,3.69-8.28,6-12.51a31.11,31.11,0,0,1,2.06-3.28,11.33,11.33,0,0,1,1.74-1.91,5.18,5.18,0,0,1,2.07-1.1,4.17,4.17,0,0,1,.8-.09,2.56,2.56,0,0,1,.9.18,2.34,2.34,0,0,1,.93.67,4.71,4.71,0,0,1,.87,2c.12.58.19,1.12.25,1.66.12,1.07.16,2.11.19,3.15.09,4.15-.09,8.24-.21,12.32s-.27,8.15-.09,12a24.63,24.63,0,0,0,.26,2.72,5.36,5.36,0,0,0,.25,1.06,1.46,1.46,0,0,0,.1.24s0-.16-.57-.31a1.88,1.88,0,0,0-.49,0,2.12,2.12,0,0,0-.55.13,2,2,0,0,0-.33.16l-.16.1c-.12.12,0,0,.07-.09a9.72,9.72,0,0,0,.75-1.06c.54-.85,1.07-1.8,1.58-2.76,2-3.91,3.91-8,5.81-12.13s3.78-8.25,6-12.46c.56-1,1.13-2.11,1.8-3.2.33-.54.69-1.1,1.11-1.69a11.66,11.66,0,0,1,1.75-2,5.21,5.21,0,0,1,2.47-1.25,2.85,2.85,0,0,1,1.78.21,2.88,2.88,0,0,1,.31.17l.22.17a2.71,2.71,0,0,1,.34.35,4.94,4.94,0,0,1,.89,2.07,21.74,21.74,0,0,1,.38,3.28c.17,4.2,0,8.29-.21,12.39s-.39,8.17-.38,12.09c0,1,0,1.93.1,2.85a10.87,10.87,0,0,0,.35,2.35c0,.14.08.18.07.18s0,0-.16-.17l-.1-.06a.51.51,0,0,0-.16-.09l-.2-.07a1.15,1.15,0,0,0-.28-.06,2.32,2.32,0,0,0-1.43.35l-.15.1c-.12.11,0,0,.06-.08a18.78,18.78,0,0,0,1.54-2.33c2.15-3.74,4.07-7.89,6-12s3.86-8.23,6-12.41c.54-1,1.1-2.1,1.71-3.17a36.89,36.89,0,0,1,2.09-3.33A12.19,12.19,0,0,1,209,92.63l.44-.35c.15-.1.4-.26.6-.37a4.34,4.34,0,0,1,1.83-.58,3,3,0,0,1,1,.07,2.79,2.79,0,0,1,.74.29,2.55,2.55,0,0,1,.79.7,3.93,3.93,0,0,1,.61,1.15,6.72,6.72,0,0,1,.26.94,14,14,0,0,1,.25,1.7,56,56,0,0,1,.12,6.32c-.06,2.07-.16,4.13-.27,6.19-.22,4.1-.5,8.19-.62,12.17a44.81,44.81,0,0,0,.13,5.64,6.19,6.19,0,0,0,.19,1c0,.13.08.18,0,.14a.18.18,0,0,0-.05-.07,1.17,1.17,0,0,0-.16-.15,1.6,1.6,0,0,0-.35-.18,1.75,1.75,0,0,0-.6-.1,2.2,2.2,0,0,0-.62.08,1.74,1.74,0,0,0-.45.17,1,1,0,0,0-.25.14c-.08,0-.08,0-.11.08s0,0,.07-.1a10.86,10.86,0,0,0,.75-1,63,63,0,0,0,3.22-5.64c1-2,2-4,3-6.06,2-4.08,3.95-8.2,6.07-12.36,1.07-2.09,2.15-4.16,3.49-6.35.34-.55.71-1.11,1.15-1.71.21-.3.45-.6.74-1a9.62,9.62,0,0,1,1.16-1.16l.46-.35c.21-.14.43-.27.65-.39a4.73,4.73,0,0,1,.9-.37,4.58,4.58,0,0,1,1.12-.16,4,4,0,0,1,.9.14,3.16,3.16,0,0,1,.64.31,2.38,2.38,0,0,1,.43.34,2.8,2.8,0,0,1,.29.32,4,4,0,0,1,.59,1.13,8,8,0,0,1,.27.94,20,20,0,0,1,.36,3.32c0,1.06,0,2.11,0,3.15,0,2.08-.14,4.15-.26,6.21l-.79,12.23c-.11,2-.19,4-.14,5.86a12.06,12.06,0,0,0,.24,2.38c0,.12.07.19,0,.12l-.07-.08a.64.64,0,0,0-.19-.17,1.25,1.25,0,0,0-.45-.2,1.21,1.21,0,0,0-.35-.07h-.3a2.24,2.24,0,0,0-1.11.39c-.07.06,0,0,.1-.1a16.86,16.86,0,0,0,1.63-2.24c.57-.9,1.13-1.86,1.68-2.83,1.09-1.94,2.14-4,3.17-6l6.16-12.3c1.06-2.07,2.13-4.14,3.33-6.26.61-1.06,1.23-2.12,2.05-3.29.21-.3.43-.6.7-.93a9.14,9.14,0,0,1,1.1-1.16c.15-.13.27-.23.46-.37a6.31,6.31,0,0,1,.69-.43l.49-.22a3.46,3.46,0,0,1,.56-.17,4.63,4.63,0,0,1,.65-.1c.23,0,.22,0,.34,0a3.4,3.4,0,0,1,1.77.58,4.33,4.33,0,0,1,1.41,1.8,8.67,8.67,0,0,1,.54,1.69,21.37,21.37,0,0,1,.44,3.2,62.29,62.29,0,0,1,.05,6.26c-.16,4.15-.56,8.29-1,12.42l-.63,6.16c-.09,1-.19,2-.25,3,0,.48-.06,1-.07,1.4a4.88,4.88,0,0,0,0,.56c0,.05,0,.11,0,.06l0-.07a.38.38,0,0,0-.06-.13,1.36,1.36,0,0,0-.28-.39,1.86,1.86,0,0,0-1.24-.45,1.79,1.79,0,0,1,1.72,2.5,3.61,3.61,0,0,1-3.21,2.5,2.14,2.14,0,0,1-1.4-.52A2.08,2.08,0,0,1,256,131a2.49,2.49,0,0,1-.11-.29,1.67,1.67,0,0,1-.07-.24,4,4,0,0,1-.1-.65,7.73,7.73,0,0,1,0-.94c0-.57,0-1.11.05-1.64.06-1.06.14-2.1.23-3.14l.55-6.16c.36-4.09.68-8.15.8-12.11.05-2,.06-3.93-.08-5.76a18.74,18.74,0,0,0-.37-2.56,4.69,4.69,0,0,0-.32-1c-.1-.26-.27-.41-.2-.36s.17.09.41.12h.15a1.74,1.74,0,0,0,.45-.06l.35-.11L258,96a1.68,1.68,0,0,0,.31-.19l.11-.08c.07-.06,0,0-.14.16s-.23.3-.37.5c-.53.77-1.1,1.72-1.64,2.68-1.08,1.92-2.12,3.94-3.14,6L247,117.4c-1.05,2.07-2.12,4.15-3.29,6.25-.59,1-1.2,2.1-1.89,3.19a23.54,23.54,0,0,1-2.57,3.47,9.09,9.09,0,0,1-1.24,1.12,5.14,5.14,0,0,1-2.65,1.08,2.88,2.88,0,0,1-1-.09,2.82,2.82,0,0,1-.76-.35,3.39,3.39,0,0,1-.44-.39c-.12-.14-.18-.24-.27-.36a4.59,4.59,0,0,1-.5-1.15,16,16,0,0,1-.43-3.44c-.07-2.14,0-4.2.1-6.27.19-4.13.51-8.23.75-12.29.11-2,.21-4,.24-6,0-1,0-2,0-2.88a16.09,16.09,0,0,0-.27-2.53c0-.16-.08-.31-.11-.42s-.08-.17,0-.1,0,0,.07.07a.48.48,0,0,0,.16.12,1,1,0,0,0,.33.16,1.62,1.62,0,0,0,.52.08,2.43,2.43,0,0,0,.72-.11,1.69,1.69,0,0,0,.5-.2,1.28,1.28,0,0,0,.27-.16l.1-.07c.08-.06,0,0-.1.12s-.23.28-.36.46c-.26.36-.54.78-.82,1.23-1.11,1.79-2.17,3.79-3.19,5.79-2.06,4-4,8.13-6.05,12.26-1,2.06-2,4.13-3.13,6.22a69.56,69.56,0,0,1-3.7,6.42,21,21,0,0,1-1.4,1.83,9.23,9.23,0,0,1-1.21,1.15,5.49,5.49,0,0,1-.48.35c-.21.13-.4.24-.63.36a6.66,6.66,0,0,1-.85.31,4,4,0,0,1-1,.14,3.3,3.3,0,0,1-1-.17,2.71,2.71,0,0,1-.66-.35,4.89,4.89,0,0,1-.41-.37l-.26-.34a4.64,4.64,0,0,1-.51-1.13,11.44,11.44,0,0,1-.36-1.8,48.85,48.85,0,0,1-.16-6.36c.11-4.15.39-8.26.61-12.33.1-2,.2-4.06.25-6.05a51,51,0,0,0-.1-5.72,11,11,0,0,0-.17-1.19,3,3,0,0,0-.12-.43c0-.1-.08-.18,0-.08a1.07,1.07,0,0,0,.29.23,1.4,1.4,0,0,0,.41.16,2.11,2.11,0,0,0,.62.05,2.67,2.67,0,0,0,1-.31l.22-.14.09-.07c.06-.06-.26.28-.5.62A28.11,28.11,0,0,0,210,99.6c-.54.94-1.06,1.92-1.58,2.91-2,4-4,8.08-6,12.2s-3.93,8.23-6.41,12.51a24.72,24.72,0,0,1-2.4,3.48,9.37,9.37,0,0,1-1.22,1.17,6,6,0,0,1-.51.36,4.34,4.34,0,0,1-.69.36,3.73,3.73,0,0,1-1.92.34,3.4,3.4,0,0,1-.46-.09,2.2,2.2,0,0,1-.36-.13l-.32-.17c-.09,0-.15-.11-.23-.16a3,3,0,0,1-.61-.68,4.78,4.78,0,0,1-.5-1.08,14.94,14.94,0,0,1-.53-3.42c-.07-1.06-.09-2.11-.09-3.15,0-4.17.25-8.28.45-12.36s.41-8.18.27-12a17.2,17.2,0,0,0-.27-2.59c-.05-.33-.23-.69-.14-.53l.1.1.09.06.15.09.19.07a2,2,0,0,0,.28.06,2.24,2.24,0,0,0,.58,0,1.87,1.87,0,0,0,.94-.41,1.87,1.87,0,0,0-.2.22,4.53,4.53,0,0,0-.37.48c-.27.37-.55.79-.82,1.23-.56.89-1.09,1.85-1.61,2.83-2.08,3.91-4,8-5.92,12.12s-3.82,8.24-6.07,12.45c-.56,1.05-1.16,2.11-1.88,3.23a17.12,17.12,0,0,1-1.3,1.79,7.48,7.48,0,0,1-1.2,1.16,4.55,4.55,0,0,1-.52.36,4,4,0,0,1-.72.35,3.41,3.41,0,0,1-.94.23,2.71,2.71,0,0,1-.87,0,2.62,2.62,0,0,1-1.65-1.12,4.9,4.9,0,0,1-.49-1,10.47,10.47,0,0,1-.41-1.73,27.56,27.56,0,0,1-.29-3.2c-.17-4.17,0-8.27.16-12.37s.33-8.18.27-12.1c0-1-.06-1.94-.15-2.83a10.42,10.42,0,0,0-.18-1.25c0-.35-.24-.72-.16-.59a.93.93,0,0,0,.39.26,1.45,1.45,0,0,0,.53.09,1.3,1.3,0,0,0,.4,0c.47-.13.56-.25.55-.24a4.94,4.94,0,0,0-.63.73,25.66,25.66,0,0,0-1.65,2.61c-2.14,3.81-4,7.94-5.89,12s-3.73,8.22-5.87,12.36c-.53,1-1.07,2.07-1.66,3.12a26.38,26.38,0,0,1-2.17,3.28,6.33,6.33,0,0,1-1,1,3.69,3.69,0,0,1-1.1.65,3.17,3.17,0,0,1-.83.16h-.2l-1.57,0c-1,0-2.06-.11-3.08-.17-2.05-.13-4.07-.34-6.08-.56-1-.1-2-.24-3-.37l-1.49-.2-.74-.1-.37-.05h-.22c-.41.13,1.11-.21.33-1a.45.45,0,0,1,.17.69A.69.69,0,0,1,127.53,131.26Z" transform="translate(-1.82 -1.96)"/><path class="cls-5" d="M2.66,45.6l16-20.53a1.63,1.63,0,0,1,2.29-.29l103.22,80.15a1.66,1.66,0,0,1,.54.74l8.24,23.26a1.64,1.64,0,0,1-1.72,2.17L107,128.39a1.61,1.61,0,0,1-.82-.33L3,47.89A1.64,1.64,0,0,1,2.66,45.6Z" transform="translate(-1.82 -1.96)"/></svg>